<?xml version="1.0" encoding="UTF-8" standalone="no"?>
<!-- Created with Inkscape (http://www.inkscape.org/) -->

<svg
   width="45.667587mm"
   height="14.92203mm"
   viewBox="0 0 45.667587 14.92203"
   version="1.1"
   id="svg63690"
   inkscape:version="1.1 (1:1.1+202105261517+ce6663b3b7)"
   sodipodi:docname="logo.svg"
   xmlns:inkscape="http://www.inkscape.org/namespaces/inkscape"
   xmlns:sodipodi="http://sodipodi.sourceforge.net/DTD/sodipodi-0.dtd"
   xmlns="http://www.w3.org/2000/svg"
   xmlns:svg="http://www.w3.org/2000/svg">
  <sodipodi:namedview
     id="namedview63692"
     pagecolor="#ffffff"
     bordercolor="#666666"
     borderopacity="1.0"
     inkscape:pageshadow="2"
     inkscape:pageopacity="0.0"
     inkscape:pagecheckerboard="0"
     inkscape:document-units="mm"
     showgrid="false"
     inkscape:zoom="2.1266375"
     inkscape:cx="77.117044"
     inkscape:cy="103.21458"
     inkscape:window-width="1551"
     inkscape:window-height="752"
     inkscape:window-x="294"
     inkscape:window-y="291"
     inkscape:window-maximized="0"
     inkscape:current-layer="layer1" />
  <defs
     id="defs63687" />
  <g
     inkscape:label="Layer 1"
     inkscape:groupmode="layer"
     id="layer1"
     transform="translate(-72.881845,-106.9051)">
    <g
       id="g269">
      <path
         id="rect33611-6-5-1-9-7"
         style="fill:#28170b;stroke:none;stroke-width:1.29033;stroke-linecap:round"
         d="M 25.705078 0 A 2.4276401 2.4276401 0 0 0 23.277344 2.4277344 A 2.4276401 2.4276401 0 0 0 25.705078 4.8554688 A 2.4276401 2.4276401 0 0 0 28.132812 2.4277344 A 2.4276401 2.4276401 0 0 0 25.705078 0 z M 25.697266 5.1386719 A 13.814303 4.4515196 0 0 0 11.910156 9.3730469 L 39.492188 9.3730469 A 13.814303 4.4515196 0 0 0 25.697266 5.1386719 z M 11.917969 10.328125 L 11.917969 13.501953 L 11.917969 15.5 L 39.492188 15.5 L 39.492188 15.183594 C 39.81288 13.309402 43.503333 11.386172 43.244141 10.894531 C 42.976928 10.387697 40.388357 10.874394 39.943359 10.669922 C 39.524739 10.477166 39.501698 10.395407 39.556641 10.363281 C 39.537743 10.363848 39.516565 10.363281 39.492188 10.363281 L 39.492188 10.330078 L 36.320312 10.330078 L 15.091797 10.330078 L 11.917969 10.328125 z M 11.904297 15.539062 A 13.573229 13.573229 0 0 0 0 28.990234 A 13.573229 13.573229 0 0 0 11.917969 42.445312 L 11.917969 46.611328 L 11.917969 49.453125 L 11.912109 49.453125 C 11.856437 50.742057 11.112582 51.862858 10.484375 52.890625 C 10.170258 53.404527 9.8844567 53.893504 9.75 54.390625 C 9.6155244 54.887746 9.6501125 55.410611 9.9785156 55.880859 C 10.277854 56.309571 10.743159 56.450806 11.189453 56.382812 C 11.635766 56.314781 12.090759 56.085257 12.552734 55.820312 C 13.476689 55.290498 14.457154 54.632082 15.082031 54.634766 L 29.15625 54.695312 C 29.279311 54.695804 29.540132 54.81216 29.830078 55.011719 C 30.120006 55.211278 30.443735 55.477023 30.771484 55.710938 C 31.099207 55.94489 31.427018 56.152484 31.771484 56.226562 C 31.863591 56.24546 31.959103 56.25378 32.054688 56.25 L 35.378906 56.271484 C 35.470522 56.268347 35.562479 56.25308 35.650391 56.216797 C 35.822019 56.148387 35.96899 56.017015 36.080078 55.835938 C 36.550357 55.068845 36.370216 54.218437 36.125 53.230469 C 36.081989 53.056988 36.037693 52.86932 35.992188 52.683594 L 35.496094 52.683594 L 32.152344 52.683594 C 32.206126 52.906208 32.260922 53.124509 32.310547 53.324219 C 32.553155 54.301378 32.682039 54.975955 32.322266 55.5625 C 32.252382 55.676642 32.188282 55.723921 32.123047 55.75 C 32.057699 55.776457 31.979327 55.784396 31.873047 55.761719 C 31.660448 55.715986 31.36082 55.54149 31.050781 55.320312 C 30.740709 55.098832 30.415698 54.835405 30.101562 54.619141 C 29.787446 54.402952 29.491115 54.216167 29.158203 54.214844 L 15.085938 54.15625 C 14.169285 54.153113 13.203603 54.895296 12.3125 55.40625 C 11.866939 55.661746 11.447502 55.860115 11.119141 55.910156 C 10.790775 55.960046 10.579414 55.907655 10.371094 55.609375 C 10.123157 55.254099 10.103058 54.92166 10.212891 54.515625 C 10.322648 54.109553 10.582948 53.649186 10.892578 53.142578 C 11.326411 52.432821 11.853171 51.631379 12.154297 50.714844 C 12.627562 51.870359 13.759964 52.679688 15.089844 52.679688 L 32.152344 52.679688 C 31.943336 51.814818 31.735653 50.781287 31.775391 49.507812 L 31.78125 49.507812 L 31.78125 20.298828 L 32.460938 19.234375 L 11.917969 19.234375 L 11.917969 38.792969 A 9.9472721 9.9472721 0 0 1 3.625 28.992188 A 9.9472721 9.9472721 0 0 1 11.904297 19.191406 L 11.904297 15.539062 z M 34.904297 19.232422 L 35.513672 20.185547 L 35.513672 49.525391 L 35.513672 49.578125 L 35.511719 49.578125 C 35.482616 50.811007 35.779666 51.821432 35.990234 52.679688 L 36.318359 52.679688 C 38.076085 52.679688 39.492188 51.263604 39.492188 49.505859 L 39.492188 46.611328 L 39.492188 19.232422 L 34.904297 19.232422 z M 28.400391 23.658203 C 29.965928 23.658203 30.8823 24.633637 30.705078 25.726562 C 30.586923 26.435488 30.05388 27.025391 29.197266 27.025391 C 28.399732 27.025391 28.016618 26.435267 28.134766 25.755859 C 28.252921 25.017415 28.844516 24.633924 29.228516 24.515625 C 28.814975 24.308885 28.371833 24.308594 28.283203 24.308594 C 26.983511 24.308594 25.327843 25.726802 24.884766 28.326172 L 24.324219 31.751953 L 27.779297 31.751953 L 27.632812 32.667969 L 24.265625 32.667969 L 22.669922 42.179688 C 22.492692 43.242944 22.49189 43.568359 24.677734 43.568359 L 25.298828 43.568359 L 25.150391 44.482422 C 23.998391 44.393981 22.611225 44.394531 21.429688 44.394531 L 18.033203 44.482422 L 18.179688 43.568359 C 20.158762 43.568359 20.484407 43.567503 20.720703 42.238281 L 22.316406 32.667969 L 19.982422 32.667969 L 20.128906 31.751953 L 22.462891 31.751953 L 23.025391 28.355469 C 23.557083 25.224395 26.332698 23.658203 28.400391 23.658203 z "
         transform="matrix(0.26458333,0,0,0.26458333,72.881845,106.9051)" />
      <g
         aria-label="renchpress"
         transform="matrix(0.04070513,0,0,0.04070513,62.044428,99.248393)"
         id="text4922-4-72-6-0-5"
         style="font-size:192px;line-height:1.25;white-space:pre;shape-inside:url(#rect4924-0-1-6);fill:#28170b">
        <path
           d="m 595.19553,404.60195 c 0.96,-6.144 -4.032,-11.712 -12.288,-11.712 -14.016,0 -23.04,12.864 -27.264,21.12 l 3.648,-21.12 -27.072,2.112 -0.96,5.952 c 13.44,0 14.784,1.344 13.056,10.752 l -8.448,51.456 c -1.536,8.64 -3.648,8.64 -16.512,8.64 l -0.96,5.952 22.08,-0.576 c 7.68,0 16.704,0 24.192,0.576 l 0.96,-5.952 h -4.032 c -14.208,0 -14.208,-2.112 -13.056,-9.024 l 4.992,-29.568 c 3.072,-19.008 14.016,-36.096 28.608,-36.096 1.344,0 1.728,0 2.112,0.192 -0.576,0.192 -4.8,2.496 -5.76,7.488 -0.768,5.376 2.688,8.256 6.912,8.256 3.456,0 8.64,-2.304 9.792,-8.448 z"
           style="font-family:'Latin Modern Roman Slanted';-inkscape-font-specification:'Latin Modern Roman Slanted'"
           id="path63288-9-6" />
        <path
           d="m 671.8032,454.90595 c 0.384,-1.92 -1.152,-2.304 -2.112,-2.304 -1.728,0 -2.304,1.152 -2.88,2.688 -10.176,19.776 -27.456,19.776 -29.376,19.776 -9.6,0 -16.32,-5.76 -19.392,-12.864 -4.224,-9.216 -2.112,-21.888 -0.96,-28.8 h 53.568 c 4.224,0 4.8,0 5.376,-4.032 3.264,-19.008 -4.032,-37.632 -28.032,-37.632 -22.272,0 -43.2,19.776 -47.232,43.776 -4.416,25.728 12.672,44.352 34.752,44.352 23.424,0 35.712,-21.312 36.288,-24.96 z m -8.448,-25.536 h -45.504 c 5.952,-28.608 22.848,-33.408 29.376,-33.408 19.776,0 17.472,25.92 16.128,33.408 z"
           style="font-family:'Latin Modern Roman Slanted';-inkscape-font-specification:'Latin Modern Roman Slanted'"
           id="path63290-1-3" />
        <path
           d="m 776.25088,477.75395 0.96,-5.952 c -9.984,0 -14.784,0 -14.016,-5.76 l 6.144,-36.672 c 2.688,-16.512 3.84,-22.464 -0.96,-29.376 -2.304,-3.264 -7.872,-7.104 -19.008,-7.104 -14.016,0 -24.384,8.256 -31.872,20.16 l 3.456,-20.16 -27.456,2.112 -0.96,5.952 c 13.44,0 14.784,1.344 13.056,10.752 l -8.448,51.456 c -1.536,8.64 -3.648,8.64 -16.512,8.64 l -0.96,5.952 21.888,-0.576 21.312,0.576 0.96,-5.952 c -12.864,0 -14.976,0 -13.44,-8.64 l 5.76,-35.328 c 3.456,-19.968 18.816,-30.72 31.104,-30.72 12.096,0 12.48,10.368 10.752,21.312 l -7.488,44.736 c -1.536,8.64 -3.648,8.64 -16.512,8.64 l -0.96,5.952 21.888,-0.576 z"
           style="font-family:'Latin Modern Roman Slanted';-inkscape-font-specification:'Latin Modern Roman Slanted'"
           id="path63292-7-9" />
        <path
           d="m 863.80284,454.90595 c 0.384,-1.92 -1.536,-1.92 -2.112,-1.92 -1.728,0 -2.304,0.768 -2.88,1.92 -8.64,17.856 -21.504,20.16 -28.608,20.16 -10.176,0 -25.536,-8.256 -20.544,-39.168 5.376,-31.296 22.464,-39.36 32.64,-39.36 1.728,0 13.632,0.192 19.2,7.104 -7.872,0.576 -9.984,6.336 -10.368,8.832 -0.96,4.992 1.92,8.832 7.296,8.832 4.992,0 9.408,-3.264 10.368,-9.024 2.112,-13.056 -11.136,-20.544 -25.92,-20.544 -24,0 -45.12,20.736 -49.152,44.544 -4.032,24.576 11.712,43.584 33.984,43.584 25.728,0 35.712,-23.04 36.096,-24.96 z"
           style="font-family:'Latin Modern Roman Slanted';-inkscape-font-specification:'Latin Modern Roman Slanted'"
           id="path63294-7-4" />
        <path
           d="m 962.87417,477.75395 0.96,-5.952 c -9.984,0 -14.784,0 -14.016,-5.76 l 6.144,-36.672 c 2.688,-16.512 3.84,-22.464 -0.96,-29.376 -2.304,-3.264 -7.872,-7.104 -19.008,-7.104 -16.128,0 -26.496,11.52 -30.72,18.432 h -0.192 l 11.136,-66.816 -28.032,2.112 -0.96,5.952 c 13.44,0 14.784,1.344 13.056,10.752 l -16.512,99.84 c -1.536,8.64 -3.648,8.64 -16.512,8.64 l -0.96,5.952 21.888,-0.576 21.312,0.576 0.96,-5.952 c -12.864,0 -14.976,0 -13.44,-8.64 l 5.76,-35.328 c 3.456,-19.968 18.816,-30.72 31.104,-30.72 12.096,0 12.48,10.368 10.752,21.312 l -7.488,44.736 c -1.536,8.64 -3.648,8.64 -16.512,8.64 l -0.96,5.952 21.888,-0.576 z"
           style="font-family:'Latin Modern Roman Slanted';-inkscape-font-specification:'Latin Modern Roman Slanted'"
           id="path63296-1-8" />
        <path
           d="m 1073.8501,436.28195 c 4.032,-24.384 -11.328,-43.392 -32.832,-43.392 -14.976,0 -24.576,8.448 -28.992,12.672 l 2.112,-12.672 -28.03197,2.112 -0.96,5.952 c 13.632,0 14.784,1.152 13.248,9.6 l -14.976,89.856 c -1.344,8.64 -3.456,8.64 -16.32,8.64 l -0.96,5.952 21.504,-0.576 21.69597,0.576 0.96,-5.952 c -12.86397,0 -14.97597,0 -13.63197,-8.64 l 5.37597,-32.256 0.384,-1.728 c 0.384,3.072 6.72,13.44 21.312,13.44 22.848,0 46.08,-18.816 50.112,-43.584 z m -15.936,0 c -3.84,23.232 -19.968,39.36 -34.176,39.36 -7.68,0 -14.4,-3.84 -18.24,-11.712 -1.92,-4.032 -1.92,-4.224 -1.344,-8.064 l 7.104,-42.816 c 7.296,-9.792 17.664,-15.36 27.456,-15.36 14.016,0 22.848,16.896 19.2,38.592 z"
           style="font-family:'Latin Modern Roman Slanted';-inkscape-font-specification:'Latin Modern Roman Slanted'"
           id="path63298-1-1" />
        <path
           d="m 1155.8341,404.60195 c 0.96,-6.144 -4.032,-11.712 -12.288,-11.712 -14.016,0 -23.04,12.864 -27.264,21.12 l 3.648,-21.12 -27.072,2.112 -0.96,5.952 c 13.44,0 14.784,1.344 13.056,10.752 l -8.448,51.456 c -1.536,8.64 -3.648,8.64 -16.512,8.64 l -0.96,5.952 22.08,-0.576 c 7.68,0 16.704,0 24.192,0.576 l 0.96,-5.952 h -4.032 c -14.208,0 -14.208,-2.112 -13.056,-9.024 l 4.992,-29.568 c 3.072,-19.008 14.016,-36.096 28.608,-36.096 1.344,0 1.728,0 2.112,0.192 -0.576,0.192 -4.8,2.496 -5.76,7.488 -0.768,5.376 2.688,8.256 6.912,8.256 3.456,0 8.64,-2.304 9.792,-8.448 z"
           style="font-family:'Latin Modern Roman Slanted';-inkscape-font-specification:'Latin Modern Roman Slanted'"
           id="path63300-5-2" />
        <path
           d="m 1232.4418,454.90595 c 0.384,-1.92 -1.152,-2.304 -2.112,-2.304 -1.728,0 -2.304,1.152 -2.88,2.688 -10.176,19.776 -27.456,19.776 -29.376,19.776 -9.6,0 -16.32,-5.76 -19.392,-12.864 -4.224,-9.216 -2.112,-21.888 -0.96,-28.8 h 53.568 c 4.224,0 4.8,0 5.376,-4.032 3.264,-19.008 -4.032,-37.632 -28.032,-37.632 -22.272,0 -43.2,19.776 -47.232,43.776 -4.416,25.728 12.672,44.352 34.752,44.352 23.424,0 35.712,-21.312 36.288,-24.96 z m -8.448,-25.536 h -45.504 c 5.952,-28.608 22.848,-33.408 29.376,-33.408 19.776,0 17.472,25.92 16.128,33.408 z"
           style="font-family:'Latin Modern Roman Slanted';-inkscape-font-specification:'Latin Modern Roman Slanted'"
           id="path63302-9-9" />
        <path
           d="m 1307.3214,453.17795 c 1.728,-10.176 -3.072,-15.936 -4.992,-18.24 -5.184,-6.144 -12.48,-7.68 -20.352,-9.216 -10.368,-2.112 -22.848,-4.608 -20.928,-15.744 1.152,-6.72 7.488,-14.592 24,-14.592 21.12,0 19.2,17.28 18.432,23.232 0,1.728 2.112,1.728 2.112,1.728 2.496,0 2.688,-0.96 3.264,-4.608 l 3.264,-19.392 c 0.576,-3.264 0.768,-4.608 -1.344,-4.608 -0.96,0 -1.344,0 -4.224,2.304 -0.768,0.768 -2.88,2.496 -3.84,3.072 -6.336,-5.376 -14.208,-5.376 -17.088,-5.376 -23.424,0 -32.832,12.864 -34.752,23.616 -1.152,6.72 1.152,12.096 5.568,16.32 5.376,4.992 10.56,6.144 23.808,8.832 4.224,0.768 19.392,3.84 17.088,17.664 -1.536,9.792 -9.6,17.472 -24.576,17.472 -16.128,0 -21.312,-10.944 -22.08,-27.264 -0.192,-2.496 -0.384,-3.264 -2.304,-3.264 -2.496,0 -2.688,1.344 -3.264,4.8 l -4.224,25.344 c -0.576,3.264 -0.768,4.608 1.344,4.608 0.96,0 1.152,-0.192 5.568,-3.84 0.384,-0.384 0.384,-0.768 4.416,-4.416 7.104,8.064 15.744,8.256 19.776,8.256 22.08,0 33.024,-12.864 35.328,-26.688 z"
           style="font-family:'Latin Modern Roman Slanted';-inkscape-font-specification:'Latin Modern Roman Slanted'"
           id="path63304-7-3" />
        <path
           d="m 1382.9693,453.17795 c 1.728,-10.176 -3.072,-15.936 -4.992,-18.24 -5.184,-6.144 -12.48,-7.68 -20.352,-9.216 -10.368,-2.112 -22.848,-4.608 -20.928,-15.744 1.152,-6.72 7.488,-14.592 24,-14.592 21.12,0 19.2,17.28 18.432,23.232 0,1.728 2.112,1.728 2.112,1.728 2.496,0 2.688,-0.96 3.264,-4.608 l 3.264,-19.392 c 0.576,-3.264 0.768,-4.608 -1.344,-4.608 -0.96,0 -1.344,0 -4.224,2.304 -0.768,0.768 -2.88,2.496 -3.84,3.072 -6.336,-5.376 -14.208,-5.376 -17.088,-5.376 -23.424,0 -32.832,12.864 -34.752,23.616 -1.152,6.72 1.152,12.096 5.568,16.32 5.376,4.992 10.56,6.144 23.808,8.832 4.224,0.768 19.392,3.84 17.088,17.664 -1.536,9.792 -9.6,17.472 -24.576,17.472 -16.128,0 -21.312,-10.944 -22.08,-27.264 -0.192,-2.496 -0.384,-3.264 -2.304,-3.264 -2.496,0 -2.688,1.344 -3.264,4.8 l -4.224,25.344 c -0.576,3.264 -0.768,4.608 1.344,4.608 0.96,0 1.152,-0.192 5.568,-3.84 0.384,-0.384 0.384,-0.768 4.416,-4.416 7.104,8.064 15.744,8.256 19.776,8.256 22.08,0 33.024,-12.864 35.328,-26.688 z"
           style="font-family:'Latin Modern Roman Slanted';-inkscape-font-specification:'Latin Modern Roman Slanted'"
           id="path63306-7-9" />
      </g>
    </g>
  </g>
</svg>
