<?xml version="1.0" encoding="UTF-8" standalone="no"?>
<!-- Created with Inkscape (http://www.inkscape.org/) -->

<svg
   width="45.667587mm"
   height="14.92203mm"
   viewBox="0 0 45.667587 14.92203"
   version="1.1"
   id="svg63690"
   inkscape:version="1.1 (1:1.1+202105261517+ce6663b3b7)"
   sodipodi:docname="frenchpress.svg"
   xmlns:inkscape="http://www.inkscape.org/namespaces/inkscape"
   xmlns:sodipodi="http://sodipodi.sourceforge.net/DTD/sodipodi-0.dtd"
   xmlns="http://www.w3.org/2000/svg"
   xmlns:svg="http://www.w3.org/2000/svg">
  <sodipodi:namedview
     id="namedview63692"
     pagecolor="#ffffff"
     bordercolor="#666666"
     borderopacity="1.0"
     inkscape:pageshadow="2"
     inkscape:pageopacity="0.0"
     inkscape:pagecheckerboard="0"
     inkscape:document-units="mm"
     showgrid="false"
     inkscape:zoom="0.75187991"
     inkscape:cx="121.02997"
     inkscape:cy="156.27496"
     inkscape:window-width="1551"
     inkscape:window-height="752"
     inkscape:window-x="294"
     inkscape:window-y="291"
     inkscape:window-maximized="0"
     inkscape:current-layer="layer1" />
  <defs
     id="defs63687" />
  <g
     inkscape:label="Layer 1"
     inkscape:groupmode="layer"
     id="layer1"
     transform="translate(-72.881845,-106.9051)">
    <g
       id="g63362-5-6"
       transform="matrix(0.41367069,0,0,0.41367069,44.890304,24.68416)">
      <path
         id="rect33611-6-5-1-9-7"
         style="fill:#28170b;stroke:none;stroke-width:0.825296;stroke-linecap:round"
         d="m 84.106663,198.7594 a 1.552716,1.552716 0 0 0 -1.55243,1.55303 1.552716,1.552716 0 0 0 1.55243,1.55243 1.552716,1.552716 0 0 0 1.55302,-1.55243 1.552716,1.552716 0 0 0 -1.55302,-1.55303 z m -0.005,3.28645 a 8.8356135,2.8471873 0 0 0 -8.81759,2.70823 h 17.64175 a 8.8356135,2.8471873 0 0 0 -8.82416,-2.70823 z m -8.81282,3.31989 v 2.02968 1.27826 h 17.63698 v -0.20249 c 0.20511,-1.19874 2.56461,-2.42962 2.39883,-2.74408 -0.1709,-0.32416 -1.8257,-0.0117 -2.11032,-0.14276 -0.26775,-0.12334 -0.28243,-0.17647 -0.24729,-0.19711 -0.012,3.6e-4 -0.0256,0.001 -0.0412,0.001 v -0.0226 h -2.02968 -13.57761 z m -0.008,3.33243 a 8.6814231,8.6814231 0 0 0 -7.6146,8.60375 8.6814231,8.6814231 0 0 0 7.62237,8.60555 v 2.66403 1.81824 h -0.003 c -0.0356,0.82439 -0.5121,1.54136 -0.9139,2.19872 -0.2009,0.32869 -0.38349,0.64133 -0.46949,0.95929 -0.086,0.31796 -0.0637,0.65194 0.14634,0.95272 0.19145,0.27421 0.48927,0.36425 0.77472,0.32076 0.28546,-0.0435 0.57601,-0.18957 0.87149,-0.35899 0.59096,-0.33885 1.21846,-0.76031 1.61813,-0.75859 l 9.00097,0.0383 c 0.0787,3.1e-4 0.24582,0.0754 0.43127,0.20309 0.18544,0.12767 0.39306,0.29779 0.60269,0.44739 0.20962,0.14961 0.41881,0.28234 0.63913,0.32972 0.0589,0.0127 0.12043,0.0178 0.18158,0.0138 l 2.12585,0.0149 v -5.9e-4 c 0.0586,-0.002 0.117,-0.0128 0.17322,-0.0352 0.10977,-0.0437 0.20433,-0.12784 0.27537,-0.2437 0.30079,-0.49062 0.18613,-1.03403 0.0293,-1.66593 -0.0275,-0.11096 -0.0569,-0.23062 -0.086,-0.34942 h -0.31658 -2.1384 c 0.0344,0.14232 0.0692,0.28201 0.10094,0.40976 0.15516,0.62498 0.23713,1.0566 0.007,1.43176 -0.0447,0.0729 -0.0849,0.10276 -0.12663,0.11948 -0.0418,0.0166 -0.0921,0.021 -0.16008,0.007 -0.13599,-0.0292 -0.32793,-0.14039 -0.52623,-0.28193 -0.19831,-0.14153 -0.40656,-0.31086 -0.60748,-0.44919 -0.20091,-0.13832 -0.38976,-0.2566 -0.60269,-0.25744 l -9.00097,-0.0383 c -0.58629,-0.002 -1.20408,0.4724 -1.77403,0.79921 -0.28498,0.16339 -0.55335,0.29055 -0.76337,0.32254 -0.21003,0.032 -0.34521,-9e-4 -0.47845,-0.19173 -0.15859,-0.22715 -0.1718,-0.44035 -0.10155,-0.70006 0.0702,-0.25971 0.2374,-0.55403 0.43545,-0.87805 0.27748,-0.45398 0.61437,-0.96683 0.80697,-1.55303 0.3027,0.73906 1.02738,1.25735 1.87797,1.25735 h 10.91238 c -0.13368,-0.55318 -0.26672,-1.21516 -0.24131,-2.02968 h 0.004 v -18.68204 l 0.43433,-0.68094 h -13.13934 v 12.51081 a 6.3622647,6.3622647 0 0 1 -5.30358,-6.26945 6.3622647,6.3622647 0 0 1 5.29581,-6.26765 z m 14.71073,2.36239 0.38885,0.60986 v 18.76531 0.0341 h -6e-4 c -0.0186,0.78853 0.17116,1.43415 0.30583,1.98308 h 0.21026 c 1.12424,0 2.02968,-0.90483 2.02968,-2.02908 v -1.85228 -17.51095 z" />
      <g
         aria-label="f"
         transform="matrix(0.09839985,0,0,0.09839985,28.076441,180.19998)"
         id="text4922-4-0-4-3"
         style="font-size:192px;line-height:1.25;white-space:pre;shape-inside:url(#rect4924-0-2);fill:#ffffff">
        <path
           d="m 601.91553,355.83395 c 1.152,-7.104 -4.8,-13.44 -14.976,-13.44 -13.44,0 -31.488,10.176 -34.944,30.528 l -3.648,22.08 h -15.168 l -0.96,5.952 h 15.168 l -10.368,62.208 c -1.536,8.64 -3.648,8.64 -16.512,8.64 l -0.96,5.952 22.08,-0.576 c 7.68,0 16.704,0 24.192,0.576 l 0.96,-5.952 h -4.032 c -14.208,0 -14.208,-2.112 -13.056,-9.024 l 10.368,-61.824 h 21.888 l 0.96,-5.952 h -22.464 l 3.648,-22.272 c 2.88,-16.896 13.632,-26.112 22.08,-26.112 0.576,0 3.456,0 6.144,1.344 -2.496,0.768 -6.336,3.264 -7.104,8.064 -0.768,4.416 1.728,8.256 6.912,8.256 5.568,0 9.024,-3.84 9.792,-8.448 z"
           style="font-family:'Latin Modern Roman Slanted';-inkscape-font-specification:'Latin Modern Roman Slanted'"
           id="path63327-9-6" />
      </g>
      <g
         aria-label="renchpress"
         transform="matrix(0.09839985,0,0,0.09839985,41.468068,180.25022)"
         id="text4922-4-72-6-0-5"
         style="font-size:192px;line-height:1.25;white-space:pre;shape-inside:url(#rect4924-0-1-6);fill:#28170b">
        <path
           d="m 595.19553,404.60195 c 0.96,-6.144 -4.032,-11.712 -12.288,-11.712 -14.016,0 -23.04,12.864 -27.264,21.12 l 3.648,-21.12 -27.072,2.112 -0.96,5.952 c 13.44,0 14.784,1.344 13.056,10.752 l -8.448,51.456 c -1.536,8.64 -3.648,8.64 -16.512,8.64 l -0.96,5.952 22.08,-0.576 c 7.68,0 16.704,0 24.192,0.576 l 0.96,-5.952 h -4.032 c -14.208,0 -14.208,-2.112 -13.056,-9.024 l 4.992,-29.568 c 3.072,-19.008 14.016,-36.096 28.608,-36.096 1.344,0 1.728,0 2.112,0.192 -0.576,0.192 -4.8,2.496 -5.76,7.488 -0.768,5.376 2.688,8.256 6.912,8.256 3.456,0 8.64,-2.304 9.792,-8.448 z"
           style="font-family:'Latin Modern Roman Slanted';-inkscape-font-specification:'Latin Modern Roman Slanted'"
           id="path63288-9-6" />
        <path
           d="m 671.8032,454.90595 c 0.384,-1.92 -1.152,-2.304 -2.112,-2.304 -1.728,0 -2.304,1.152 -2.88,2.688 -10.176,19.776 -27.456,19.776 -29.376,19.776 -9.6,0 -16.32,-5.76 -19.392,-12.864 -4.224,-9.216 -2.112,-21.888 -0.96,-28.8 h 53.568 c 4.224,0 4.8,0 5.376,-4.032 3.264,-19.008 -4.032,-37.632 -28.032,-37.632 -22.272,0 -43.2,19.776 -47.232,43.776 -4.416,25.728 12.672,44.352 34.752,44.352 23.424,0 35.712,-21.312 36.288,-24.96 z m -8.448,-25.536 h -45.504 c 5.952,-28.608 22.848,-33.408 29.376,-33.408 19.776,0 17.472,25.92 16.128,33.408 z"
           style="font-family:'Latin Modern Roman Slanted';-inkscape-font-specification:'Latin Modern Roman Slanted'"
           id="path63290-1-3" />
        <path
           d="m 776.25088,477.75395 0.96,-5.952 c -9.984,0 -14.784,0 -14.016,-5.76 l 6.144,-36.672 c 2.688,-16.512 3.84,-22.464 -0.96,-29.376 -2.304,-3.264 -7.872,-7.104 -19.008,-7.104 -14.016,0 -24.384,8.256 -31.872,20.16 l 3.456,-20.16 -27.456,2.112 -0.96,5.952 c 13.44,0 14.784,1.344 13.056,10.752 l -8.448,51.456 c -1.536,8.64 -3.648,8.64 -16.512,8.64 l -0.96,5.952 21.888,-0.576 21.312,0.576 0.96,-5.952 c -12.864,0 -14.976,0 -13.44,-8.64 l 5.76,-35.328 c 3.456,-19.968 18.816,-30.72 31.104,-30.72 12.096,0 12.48,10.368 10.752,21.312 l -7.488,44.736 c -1.536,8.64 -3.648,8.64 -16.512,8.64 l -0.96,5.952 21.888,-0.576 z"
           style="font-family:'Latin Modern Roman Slanted';-inkscape-font-specification:'Latin Modern Roman Slanted'"
           id="path63292-7-9" />
        <path
           d="m 863.80284,454.90595 c 0.384,-1.92 -1.536,-1.92 -2.112,-1.92 -1.728,0 -2.304,0.768 -2.88,1.92 -8.64,17.856 -21.504,20.16 -28.608,20.16 -10.176,0 -25.536,-8.256 -20.544,-39.168 5.376,-31.296 22.464,-39.36 32.64,-39.36 1.728,0 13.632,0.192 19.2,7.104 -7.872,0.576 -9.984,6.336 -10.368,8.832 -0.96,4.992 1.92,8.832 7.296,8.832 4.992,0 9.408,-3.264 10.368,-9.024 2.112,-13.056 -11.136,-20.544 -25.92,-20.544 -24,0 -45.12,20.736 -49.152,44.544 -4.032,24.576 11.712,43.584 33.984,43.584 25.728,0 35.712,-23.04 36.096,-24.96 z"
           style="font-family:'Latin Modern Roman Slanted';-inkscape-font-specification:'Latin Modern Roman Slanted'"
           id="path63294-7-4" />
        <path
           d="m 962.87417,477.75395 0.96,-5.952 c -9.984,0 -14.784,0 -14.016,-5.76 l 6.144,-36.672 c 2.688,-16.512 3.84,-22.464 -0.96,-29.376 -2.304,-3.264 -7.872,-7.104 -19.008,-7.104 -16.128,0 -26.496,11.52 -30.72,18.432 h -0.192 l 11.136,-66.816 -28.032,2.112 -0.96,5.952 c 13.44,0 14.784,1.344 13.056,10.752 l -16.512,99.84 c -1.536,8.64 -3.648,8.64 -16.512,8.64 l -0.96,5.952 21.888,-0.576 21.312,0.576 0.96,-5.952 c -12.864,0 -14.976,0 -13.44,-8.64 l 5.76,-35.328 c 3.456,-19.968 18.816,-30.72 31.104,-30.72 12.096,0 12.48,10.368 10.752,21.312 l -7.488,44.736 c -1.536,8.64 -3.648,8.64 -16.512,8.64 l -0.96,5.952 21.888,-0.576 z"
           style="font-family:'Latin Modern Roman Slanted';-inkscape-font-specification:'Latin Modern Roman Slanted'"
           id="path63296-1-8" />
        <path
           d="m 1073.8501,436.28195 c 4.032,-24.384 -11.328,-43.392 -32.832,-43.392 -14.976,0 -24.576,8.448 -28.992,12.672 l 2.112,-12.672 -28.03197,2.112 -0.96,5.952 c 13.632,0 14.784,1.152 13.248,9.6 l -14.976,89.856 c -1.344,8.64 -3.456,8.64 -16.32,8.64 l -0.96,5.952 21.504,-0.576 21.69597,0.576 0.96,-5.952 c -12.86397,0 -14.97597,0 -13.63197,-8.64 l 5.37597,-32.256 0.384,-1.728 c 0.384,3.072 6.72,13.44 21.312,13.44 22.848,0 46.08,-18.816 50.112,-43.584 z m -15.936,0 c -3.84,23.232 -19.968,39.36 -34.176,39.36 -7.68,0 -14.4,-3.84 -18.24,-11.712 -1.92,-4.032 -1.92,-4.224 -1.344,-8.064 l 7.104,-42.816 c 7.296,-9.792 17.664,-15.36 27.456,-15.36 14.016,0 22.848,16.896 19.2,38.592 z"
           style="font-family:'Latin Modern Roman Slanted';-inkscape-font-specification:'Latin Modern Roman Slanted'"
           id="path63298-1-1" />
        <path
           d="m 1155.8341,404.60195 c 0.96,-6.144 -4.032,-11.712 -12.288,-11.712 -14.016,0 -23.04,12.864 -27.264,21.12 l 3.648,-21.12 -27.072,2.112 -0.96,5.952 c 13.44,0 14.784,1.344 13.056,10.752 l -8.448,51.456 c -1.536,8.64 -3.648,8.64 -16.512,8.64 l -0.96,5.952 22.08,-0.576 c 7.68,0 16.704,0 24.192,0.576 l 0.96,-5.952 h -4.032 c -14.208,0 -14.208,-2.112 -13.056,-9.024 l 4.992,-29.568 c 3.072,-19.008 14.016,-36.096 28.608,-36.096 1.344,0 1.728,0 2.112,0.192 -0.576,0.192 -4.8,2.496 -5.76,7.488 -0.768,5.376 2.688,8.256 6.912,8.256 3.456,0 8.64,-2.304 9.792,-8.448 z"
           style="font-family:'Latin Modern Roman Slanted';-inkscape-font-specification:'Latin Modern Roman Slanted'"
           id="path63300-5-2" />
        <path
           d="m 1232.4418,454.90595 c 0.384,-1.92 -1.152,-2.304 -2.112,-2.304 -1.728,0 -2.304,1.152 -2.88,2.688 -10.176,19.776 -27.456,19.776 -29.376,19.776 -9.6,0 -16.32,-5.76 -19.392,-12.864 -4.224,-9.216 -2.112,-21.888 -0.96,-28.8 h 53.568 c 4.224,0 4.8,0 5.376,-4.032 3.264,-19.008 -4.032,-37.632 -28.032,-37.632 -22.272,0 -43.2,19.776 -47.232,43.776 -4.416,25.728 12.672,44.352 34.752,44.352 23.424,0 35.712,-21.312 36.288,-24.96 z m -8.448,-25.536 h -45.504 c 5.952,-28.608 22.848,-33.408 29.376,-33.408 19.776,0 17.472,25.92 16.128,33.408 z"
           style="font-family:'Latin Modern Roman Slanted';-inkscape-font-specification:'Latin Modern Roman Slanted'"
           id="path63302-9-9" />
        <path
           d="m 1307.3214,453.17795 c 1.728,-10.176 -3.072,-15.936 -4.992,-18.24 -5.184,-6.144 -12.48,-7.68 -20.352,-9.216 -10.368,-2.112 -22.848,-4.608 -20.928,-15.744 1.152,-6.72 7.488,-14.592 24,-14.592 21.12,0 19.2,17.28 18.432,23.232 0,1.728 2.112,1.728 2.112,1.728 2.496,0 2.688,-0.96 3.264,-4.608 l 3.264,-19.392 c 0.576,-3.264 0.768,-4.608 -1.344,-4.608 -0.96,0 -1.344,0 -4.224,2.304 -0.768,0.768 -2.88,2.496 -3.84,3.072 -6.336,-5.376 -14.208,-5.376 -17.088,-5.376 -23.424,0 -32.832,12.864 -34.752,23.616 -1.152,6.72 1.152,12.096 5.568,16.32 5.376,4.992 10.56,6.144 23.808,8.832 4.224,0.768 19.392,3.84 17.088,17.664 -1.536,9.792 -9.6,17.472 -24.576,17.472 -16.128,0 -21.312,-10.944 -22.08,-27.264 -0.192,-2.496 -0.384,-3.264 -2.304,-3.264 -2.496,0 -2.688,1.344 -3.264,4.8 l -4.224,25.344 c -0.576,3.264 -0.768,4.608 1.344,4.608 0.96,0 1.152,-0.192 5.568,-3.84 0.384,-0.384 0.384,-0.768 4.416,-4.416 7.104,8.064 15.744,8.256 19.776,8.256 22.08,0 33.024,-12.864 35.328,-26.688 z"
           style="font-family:'Latin Modern Roman Slanted';-inkscape-font-specification:'Latin Modern Roman Slanted'"
           id="path63304-7-3" />
        <path
           d="m 1382.9693,453.17795 c 1.728,-10.176 -3.072,-15.936 -4.992,-18.24 -5.184,-6.144 -12.48,-7.68 -20.352,-9.216 -10.368,-2.112 -22.848,-4.608 -20.928,-15.744 1.152,-6.72 7.488,-14.592 24,-14.592 21.12,0 19.2,17.28 18.432,23.232 0,1.728 2.112,1.728 2.112,1.728 2.496,0 2.688,-0.96 3.264,-4.608 l 3.264,-19.392 c 0.576,-3.264 0.768,-4.608 -1.344,-4.608 -0.96,0 -1.344,0 -4.224,2.304 -0.768,0.768 -2.88,2.496 -3.84,3.072 -6.336,-5.376 -14.208,-5.376 -17.088,-5.376 -23.424,0 -32.832,12.864 -34.752,23.616 -1.152,6.72 1.152,12.096 5.568,16.32 5.376,4.992 10.56,6.144 23.808,8.832 4.224,0.768 19.392,3.84 17.088,17.664 -1.536,9.792 -9.6,17.472 -24.576,17.472 -16.128,0 -21.312,-10.944 -22.08,-27.264 -0.192,-2.496 -0.384,-3.264 -2.304,-3.264 -2.496,0 -2.688,1.344 -3.264,4.8 l -4.224,25.344 c -0.576,3.264 -0.768,4.608 1.344,4.608 0.96,0 1.152,-0.192 5.568,-3.84 0.384,-0.384 0.384,-0.768 4.416,-4.416 7.104,8.064 15.744,8.256 19.776,8.256 22.08,0 33.024,-12.864 35.328,-26.688 z"
           style="font-family:'Latin Modern Roman Slanted';-inkscape-font-specification:'Latin Modern Roman Slanted'"
           id="path63306-7-9" />
      </g>
    </g>
  </g>
</svg>
